<svg width="120" height="120" viewBox="0 0 120 120" fill="none" xmlns="http://www.w3.org/2000/svg">
<g clip-path="url(#clip0_326_53)">
<path fill-rule="evenodd" clip-rule="evenodd" d="M48.7696 0C61.2207 0 71.3086 10.8499 71.3086 24.2416C71.3086 26.0797 71.1133 27.8652 70.7618 29.5877C71.3575 29.6613 71.9532 29.7348 72.5391 29.8188C73.4766 29.9554 74.4141 30.0919 75.3321 30.2495L75.5762 30.3125C75.9278 30.4385 76.2598 30.512 76.5625 30.533C76.8946 30.554 77.2071 30.533 77.5 30.47C78.3399 30.2915 79.5899 29.4512 80.9375 28.5479C82.4414 27.5396 84.0528 26.4683 85.7618 25.8486C86.9141 25.4284 90.9375 25.1449 94.7657 25.0608C99.1211 24.9558 103.447 25.3549 103.887 26.3002C104.229 27.0249 104.443 27.9597 104.365 28.9996C104.307 29.8293 104.063 30.7221 103.564 31.6254C102.422 33.6945 100.361 35.228 98.4082 36.667C96.4258 38.1269 94.6094 39.4713 94.9122 40.4797C94.9317 40.5637 95.127 40.7422 95.42 40.9943C95.8496 41.3619 96.4746 41.7926 97.1289 42.2232C99.7559 43.9457 101.807 45.7733 103.545 47.9265C105.264 50.0586 106.689 52.4954 108.086 55.4888C108.496 56.3606 108.887 57.2534 109.258 58.1777C109.658 59.165 110.039 60.1628 110.4 61.1711L110.479 61.4967C110.693 62.8726 110.977 63.923 111.357 64.5637C111.543 64.8788 111.719 65.0363 111.885 65.0363L111.934 65.0258H113.984C114.316 65.0258 114.58 65.0048 114.814 64.9943C116.768 64.8473 117.861 64.7737 119.004 67.9247C119.795 70.1094 120.059 73.1554 119.941 76.1908C119.814 79.4573 119.258 82.7869 118.447 85.0661C118.154 86.5681 117.52 87.7654 116.533 88.6477C115.547 89.5195 114.258 90.0446 112.647 90.1812L112.52 90.1917H110.234C109.238 90.1917 108.369 90.1497 107.725 90.1287C107.109 90.1077 106.982 90.0131 106.904 90.0551C106.787 90.1182 106.934 90.1287 106.768 90.3597C106.357 90.9689 105.703 91.9352 104.326 93.4687C103.34 94.5611 102.197 95.7689 101.104 96.8823C100.088 97.9116 99.0723 98.8884 98.2325 99.6446L97.7149 100.107C96.7676 100.947 96.3086 101.357 96.2891 101.483C96.25 101.724 96.5332 102.46 97.0899 103.898C97.3243 104.508 97.4707 104.875 97.5196 105.012C98.0762 106.482 98.6328 107.911 99.1407 109.161C99.9903 111.272 100.928 113.498 101.231 114.234L101.26 114.307C101.953 116.198 101.797 117.637 100.83 118.666C100.01 119.538 98.711 119.874 96.9532 119.727H88.7207C87.5684 119.811 86.4746 119.548 85.4493 118.918C84.4727 118.319 83.584 117.416 82.7832 116.208L82.7051 116.072C82.4024 115.505 82.0899 114.759 81.7579 113.961C80.9473 112.028 79.9512 109.623 79.1407 109.969C73.5547 112.312 68.0957 113.709 62.1875 113.919C56.3477 114.129 50.0977 113.183 42.8809 110.831C40.8106 110.516 40.3907 111.461 39.7266 112.952C39.5411 113.372 39.3457 113.824 39.0723 114.381C38.9063 114.748 38.8477 114.895 38.7793 115.032C37.8223 117.227 36.9043 119.349 34.043 119.968L33.7305 120L23.0957 119.916H22.9883C22.334 119.863 21.7579 119.706 21.25 119.412C20.6641 119.086 20.2149 118.614 19.8926 117.983C18.9454 116.124 19.5801 114.717 20.2246 113.299H20.2149C20.3223 113.057 20.4395 112.805 20.4688 112.742L20.4786 112.732L24.2188 103.93L24.2871 103.783C24.6778 103.058 24.8243 102.46 24.7364 101.997C24.6485 101.546 24.336 101.105 23.8184 100.674C23.0762 100.107 22.3536 99.5186 21.6602 98.9199C20.9375 98.3002 20.2539 97.6595 19.5899 97.0083C17.3926 94.8446 15.3614 92.3028 13.6231 89.509C11.9532 86.8306 10.5469 83.9107 9.53129 80.8648C8.74027 78.4805 8.18363 76.0333 7.91019 73.5755C7.8516 73.0083 7.80277 72.4306 7.77348 71.8635C4.32621 70.0779 1.89457 66.8954 0.722695 62.6941C-0.458946 58.4193 -0.312462 53.1046 1.44535 47.1807L4.43363 48.2101C2.87113 53.4512 2.72465 58.0832 3.73051 61.7278C4.48246 64.4166 5.87894 66.5698 7.8223 68.0088C7.86137 67.5046 7.91996 66.9899 7.98832 66.4858C8.73051 60.9821 10.7129 55.8565 13.545 51.3085C16.5821 46.4455 20.586 42.2547 25.0782 39.0092C25.8399 38.463 26.6309 37.9274 27.4414 37.4127C28.0371 37.0346 28.6231 36.688 29.1895 36.3624C27.2754 32.8018 26.1914 28.674 26.1914 24.2626C26.2305 10.8499 36.3184 0 48.7696 0ZM92.3536 59.0074C93.7598 59.0074 95.0293 59.6166 95.9473 60.6039C96.8653 61.5912 97.4317 62.9567 97.4317 64.4691C97.4317 65.9816 96.8653 67.347 95.9473 68.3344C95.0293 69.3217 93.7598 69.9309 92.3536 69.9309C90.9571 69.9309 89.6875 69.3217 88.7696 68.3344C87.8516 67.347 87.2852 65.9816 87.2852 64.4797C87.2852 62.9672 87.8516 61.6018 88.7696 60.6144C89.6778 59.6271 90.9473 59.0074 92.3536 59.0074ZM93.7207 63.0092C93.3692 62.6311 92.8907 62.4 92.3536 62.4C91.8164 62.4 91.3379 62.6311 90.9864 63.0092C90.6348 63.3873 90.42 63.902 90.42 64.4797C90.42 65.0573 90.6348 65.5825 90.9766 65.9501L90.9864 65.9606C91.3282 66.3282 91.8164 66.5593 92.3536 66.5593C92.8907 66.5593 93.3692 66.3282 93.7207 65.9501C94.0723 65.572 94.2872 65.0573 94.2872 64.4797C94.2872 63.902 94.0723 63.3768 93.7207 63.0092ZM32.2852 46.246H39.2969C36.0352 44.6179 33.1934 42.1707 31.0059 39.1562C30.3223 39.5449 29.6778 39.923 29.0723 40.3011C28.3301 40.7632 27.5977 41.2674 26.875 41.7926C22.7051 44.7965 18.9942 48.6722 16.2012 53.1676C13.6231 57.3059 11.8164 61.9694 11.1426 66.9479C10.8692 69.0171 10.8594 71.1072 11.084 73.1869C11.3282 75.4031 11.8262 77.5983 12.5293 79.7199C13.4571 82.4928 14.7364 85.1606 16.2696 87.6184C17.8614 90.1707 19.7364 92.5129 21.7579 94.5085C22.3829 95.1177 23.0176 95.7059 23.6719 96.2731C24.3457 96.8508 25.0293 97.4179 25.7422 97.9536L25.8008 97.9956C26.9239 98.9304 27.6368 100.033 27.8711 101.346C28.1055 102.628 27.8614 103.993 27.0703 105.463L23.3887 114.118C23.2422 114.465 23.1739 114.622 23.0957 114.78H23.086C22.8028 115.41 22.5196 116.03 22.6954 116.366C22.7051 116.387 22.7344 116.408 22.7637 116.429C22.8711 116.492 23.0371 116.534 23.2618 116.544L33.6133 116.618C34.8243 116.271 35.4004 114.958 35.9864 113.593C36.1231 113.288 36.25 112.984 36.2891 112.9L36.3184 112.837C36.5235 112.427 36.7383 111.944 36.9336 111.492C38.2227 108.572 39.0235 106.745 43.4571 107.48L43.6817 107.543C50.6153 109.812 56.5821 110.726 62.1289 110.526C67.6465 110.326 72.7832 109.014 78.0567 106.797C81.6407 105.295 83.3203 109.318 84.668 112.564C84.9414 113.225 85.1954 113.835 85.4493 114.318C85.9668 115.084 86.4942 115.641 87.0313 115.967C87.5196 116.261 88.0372 116.387 88.5938 116.334L88.7207 116.324H97.0508L97.1778 116.334C98.0274 116.408 98.5352 116.387 98.6621 116.25C98.6621 116.25 98.5743 116.04 98.418 115.599C98.1641 115 97.3536 113.047 96.3184 110.474C95.7032 108.951 95.0977 107.428 94.6582 106.262C94.2969 105.316 94.2676 105.222 94.2383 105.159C93.4571 103.121 93.0567 102.071 93.2422 100.895C93.4571 99.5396 94.2188 98.8674 95.7813 97.481L96.2891 97.0293C97.0313 96.3676 97.9981 95.4328 99.0137 94.393C100.088 93.3112 101.182 92.1348 102.139 91.0845C103.34 89.7506 103.926 88.8893 104.287 88.3431C104.727 87.6814 104.971 87.3243 105.566 87.0092C106.221 86.6521 106.748 86.6836 107.91 86.7256C108.418 86.7466 109.111 86.7781 110.303 86.7781H112.539C113.447 86.6941 114.131 86.4315 114.59 86.0219C115.029 85.6333 115.313 85.0451 115.449 84.2783L115.537 83.9737C116.25 82.0306 116.758 79.0372 116.865 76.0438C116.963 73.4179 116.758 70.8551 116.133 69.1221C115.83 68.2923 115.557 68.3028 115.078 68.3449C114.756 68.3659 114.395 68.3974 114.033 68.3974H111.982V68.3869C110.615 68.4184 109.551 67.7042 108.75 66.3387C108.164 65.3304 107.734 63.9335 107.461 62.2004C107.109 61.2131 106.768 60.3098 106.426 59.4906C106.055 58.5768 105.684 57.726 105.322 56.9593C104.053 54.2495 102.773 52.0333 101.211 50.1112C99.6778 48.2101 97.8614 46.6031 95.5372 45.0696C94.8145 44.5969 94.1114 44.1138 93.5059 43.5886C92.7637 42.9479 92.1973 42.2547 91.9629 41.467C90.9571 38.0744 93.6817 36.0473 96.6602 33.8416C98.3301 32.6022 100.098 31.2998 100.889 29.8608C101.123 29.4407 101.231 29.0521 101.26 28.7055C101.289 28.3274 101.221 28.0123 101.113 27.7812C100.977 27.4871 98.1934 28.3169 94.8536 28.4009C91.2891 28.4849 87.6368 28.716 86.7872 29.0206C85.4493 29.5037 83.9942 30.4805 82.627 31.3943C81.0352 32.4656 79.5606 33.453 78.1446 33.7575C77.5684 33.8836 76.9727 33.9256 76.3868 33.8836C75.8399 33.8416 75.2832 33.726 74.7168 33.537C73.877 33.3899 73.0176 33.2639 72.1582 33.1379C71.4063 33.0328 70.6348 32.9383 69.8633 32.8438C67.7637 38.7571 63.584 43.5676 58.2715 46.2144H67.5293V50.7309H32.2852V46.246ZM58.4571 16.3011L52.1973 17.3619C51.8848 16.5112 51.6016 15.923 51.3477 15.5974C51.0938 15.2718 50.6836 14.9357 50.0977 14.5996V19.8197C53.4961 20.7965 55.7715 21.8258 56.9141 22.9077C58.418 24.3676 59.1797 26.2162 59.1797 28.4639C59.1797 29.7768 58.9063 30.9847 58.3692 32.077C57.8223 33.1799 57.1289 34.0832 56.2891 34.8289C55.4493 35.5641 54.5411 36.0893 53.5938 36.4254C52.6465 36.7615 51.4746 36.9505 50.0977 37.0136V40.4166H47.6563V37.0136C46.0059 36.856 44.6778 36.5724 43.6524 36.1628C42.627 35.7532 41.7383 35.1755 40.9961 34.4403C40.2539 33.7155 39.6778 32.9278 39.2774 32.077C38.877 31.2368 38.5743 30.2074 38.3692 29.0101L45.1465 28.1698C45.3516 29.3567 45.625 30.2074 45.9668 30.7326C46.3086 31.2578 46.875 31.7304 47.6563 32.1295V25.7435C45.3809 25.0713 43.7793 24.4832 42.8321 23.9895C41.8848 23.4958 41.0645 22.6976 40.3711 21.6053C39.6778 20.5129 39.3262 19.1895 39.3262 17.6245C39.3262 15.4818 40.0293 13.6858 41.4161 12.2468C42.8125 10.8079 44.8926 9.99913 47.6465 9.85208V8.07702H50.0879V9.85208C52.5977 10.0201 54.5215 10.6503 55.8496 11.7637C57.1875 12.8665 58.0567 14.379 58.4571 16.3011ZM47.6563 14.5155C46.9336 14.7676 46.4356 15.0827 46.1524 15.4503C45.8692 15.8179 45.7325 16.2591 45.7325 16.7737C45.7325 17.2989 45.8789 17.7611 46.1621 18.1497C46.4454 18.5488 46.9434 18.8744 47.6563 19.137V14.5155ZM50.0977 32.3081C51.045 32.077 51.7481 31.6989 52.1875 31.1737C52.627 30.6486 52.8516 30.0604 52.8516 29.4092C52.8516 28.842 52.6661 28.3168 52.2852 27.8337C51.9141 27.3611 51.1817 26.9094 50.0977 26.5103V32.3081Z" fill="#003E53"/>
</g>
<defs>
<clipPath id="clip0_326_53">
<rect width="120" height="120" fill="white"/>
</clipPath>
</defs>
</svg>
