<svg width="120" height="120" viewBox="0 0 120 120" fill="none" xmlns="http://www.w3.org/2000/svg">
<g clip-path="url(#clip0_326_52)">
<path d="M53.5713 6.23041C52.1427 6.39643 50.734 6.61127 49.3451 6.88471C45.8699 7.56728 42.4755 8.60142 39.2161 9.97064C35.9918 11.3159 32.9 12.9504 29.98 14.8535C27.1257 16.7324 24.4672 18.8848 22.0435 21.2792C19.6111 23.665 17.4245 26.282 15.5158 29.0917C13.5824 31.9661 11.922 35.0095 10.5554 38.1835L10.4959 38.3203C9.68558 40.1972 8.99314 42.1214 8.4225 44.082C7.14273 43.7206 5.95226 43.3105 4.74194 42.8808C4.10998 42.582 3.44383 42.359 2.75781 42.2167C3.37739 40.1242 4.12275 38.0698 4.98996 36.0644L5.04948 35.9081C6.58513 32.4026 8.4483 29.0451 10.615 25.8788C14.8868 19.6296 20.3478 14.2539 26.6963 10.0488C29.9139 7.92608 33.3247 6.10186 36.8848 4.59955C40.5244 3.07118 44.3142 1.91599 48.1943 1.15229C56.1175 -0.384095 64.2691 -0.384095 72.1923 1.15229C76.0125 1.90938 79.7451 3.04471 83.3332 4.54096L83.4919 4.59955C87.052 6.10186 90.4628 7.92608 93.6804 10.0488C100.04 14.2509 105.511 19.6268 109.792 25.8788C111.948 29.0462 113.801 32.4037 115.327 35.9081C116.88 39.4883 118.057 43.2154 118.839 47.0312C120.387 54.8351 120.387 62.8601 118.839 70.664C118.073 74.4294 116.916 78.1075 115.387 81.6406L115.327 81.7968C113.801 85.3013 111.948 88.6587 109.792 91.8261C105.52 98.0754 100.059 103.451 93.7102 107.656C90.4926 109.779 87.0818 111.603 83.5217 113.105C80.0679 114.553 76.4797 115.669 72.8074 116.435C72.5792 115.576 72.2915 114.678 71.9642 113.701C71.5673 112.51 71.24 111.602 70.9721 110.84H71.0912C74.5668 110.159 77.9613 109.124 81.2201 107.754C84.4445 106.409 87.5362 104.774 90.4562 102.871C93.3106 100.992 95.9691 98.8397 98.3927 96.4453C100.825 94.0594 103.012 91.4425 104.921 88.6328C106.854 85.7584 108.514 82.7149 109.881 79.541L109.94 79.4042C111.303 76.2377 112.333 72.9427 113.016 69.5703C113.735 66.0466 114.094 62.4611 114.087 58.8671C114.093 56.2039 113.9 53.5438 113.512 50.9081C112.311 53.291 111.954 59.8828 111.954 61.3085L108.978 62.207H108.532L106.032 54.6874L104.097 48.6718L97.5495 60.2636L95.3769 61.6113L93.115 49.1113L88.8094 46.1035L76.5872 43.9941C79.4344 51.2402 89.3352 57.3828 73.611 60.5956C74.8709 64.3261 82.2519 61.1328 75.2578 70.1367C73.029 73.0012 71.2763 75.3971 69.9999 77.3242L71.1209 85.3613C71.24 86.2499 70.6348 87.1679 69.2062 88.0956L69.1169 88.1542C66.4681 63.7695 49.7419 55.7421 30.9523 50.2831C31.6463 47.9383 33.1655 45.9131 35.238 44.5703C39.7618 38.1542 43.0951 36.4257 50.4165 36.4257V40.7617L56.6368 43.4472L57.2221 40.7617C58.3849 40.9783 59.4998 41.3948 60.5158 41.9921C62.2717 43.1054 67.1725 43.5058 67.6487 40.8105C67.8663 39.5885 67.9725 38.3499 67.9662 37.1093L63.0058 37.5488C60.7142 32.832 54.9602 33.3886 48.611 26.8456C27.1328 34.4433 39.0872 29.2968 39.0872 22.5097L48.2737 18.3788C47.4503 11.2402 47.361 17.832 46.0118 11.3574C48.0969 10.1926 50.087 8.8703 51.9642 7.40229C52.5495 6.95307 53.105 6.56244 53.611 6.23041H53.5713ZM72.4205 7.16791C71.984 7.06049 71.5376 6.9726 71.0912 6.88471C69.4344 6.56244 67.738 6.30854 66.0217 6.13275C67.991 7.13144 70.2301 7.49365 72.4205 7.16791Z" fill="#003E53"/>
<path d="M12.9664 88.5938C11.2599 86.1113 9.79505 83.476 8.59142 80.7227C7.34507 77.9362 6.34919 75.0475 5.61523 72.0898L15.5954 76.7871C15.764 81.2988 13.1549 83.9551 12.9267 88.5938H12.9664Z" stroke="#003E53" stroke-width="3.74" stroke-linecap="round" stroke-linejoin="round"/>
<path d="M12.9664 88.5938C11.2599 86.1113 9.79505 83.476 8.59142 80.7227C7.34507 77.9362 6.34919 75.0475 5.61523 72.0898L15.5954 76.7871C15.764 81.2988 13.1549 83.9551 12.9267 88.5938H12.9664Z" fill="#003E53"/>
<path fill-rule="evenodd" clip-rule="evenodd" d="M59.5237 108.838C62.3312 112.803 62.4998 112.607 63.7796 116.338C65.0594 120.068 65.486 121.641 62.5792 117.813C59.861 114.238 59.603 114.268 55.8034 110.977L54.9205 111.133C19.6923 116.768 -5.25809 100.42 0.991911 50.498C27.5792 60.5469 65.8729 58.125 60.2975 105.059C60.2324 106.35 59.9681 107.625 59.5137 108.838H59.5237ZM50.3967 101.025C42.232 82.0312 19.8411 74.9121 9.09707 61.7871C20.4661 85.5469 27.1328 84.7363 50.3868 100.996L50.3967 101.025Z" fill="#4CA585"/>
</g>
<defs>
<clipPath id="clip0_326_52">
<rect width="120" height="120" fill="white"/>
</clipPath>
</defs>
</svg>
