<svg width="122" height="120" viewBox="0 0 122 120" fill="none" xmlns="http://www.w3.org/2000/svg">
<path d="M80.2965 18.6235C79.3202 18.1339 78.2853 17.6442 77.2114 17.2526C75.2588 16.479 73.4233 15.8229 71.4512 15.2941L71.0802 5.61949C71.0531 4.07178 70.418 2.59734 69.3131 1.51659C68.7556 0.982141 68.0914 0.57229 67.3644 0.314048C66.6375 0.0558063 65.8642 -0.0449614 65.0955 0.0183875L52.9992 0.57654C51.4762 0.653224 50.0403 1.31198 48.9866 2.41746C48.4468 2.96528 48.0273 3.62026 47.7549 4.34034C47.4826 5.06042 47.3633 5.82968 47.405 6.59871L47.776 15.4116C45.7881 15.9552 43.8484 16.6627 41.9767 17.5267C40.1341 18.3297 38.3438 19.2487 36.6168 20.2783L29.3434 13.7274C28.8123 13.1939 28.1756 12.778 27.4744 12.5064C26.7732 12.2349 26.023 12.1138 25.2723 12.1509C23.726 12.2446 22.2798 12.9487 21.2499 14.1093L13.1271 22.9222C12.5921 23.474 12.175 24.1294 11.9012 24.8484C11.6274 25.5674 11.5027 26.3348 11.5347 27.1038C11.5667 27.8728 11.7547 28.6271 12.0872 29.3207C12.4198 30.0143 12.8899 30.6326 13.4688 31.1378L19.9905 37.2285C18.9439 38.9762 18.0489 40.8108 17.3154 42.7121C16.5441 44.6706 15.89 46.5115 15.3628 48.4993L5.72673 48.8616C-2.51324 49.2729 0.484002 61.3662 0.73784 66.9673C0.813104 68.4842 1.45433 69.9173 2.53423 70.9821C3.08154 71.5247 3.73617 71.9462 4.45589 72.2194C5.17561 72.4926 5.94444 72.6115 6.71279 72.5684L15.4995 72.2061C16.0381 74.1926 16.7301 76.1341 17.5692 78.0128C18.36 79.8635 19.3461 81.7142 20.3029 83.4964L13.7617 90.6936C13.2295 91.2257 12.8154 91.8645 12.5462 92.5681C12.277 93.2717 12.1589 94.0244 12.1996 94.777C12.2778 96.3191 12.9582 97.7684 14.0936 98.8113L23.0072 107.037C23.566 107.56 24.2263 107.962 24.9469 108.218C25.6675 108.474 26.4329 108.579 27.1956 108.525C28.7367 108.459 30.1981 107.82 31.296 106.733L37.3881 100.094C39.1296 101.146 40.9589 102.043 42.8554 102.777C44.808 103.551 46.6337 104.207 48.6156 104.736L48.9768 114.4C49.0205 115.948 49.6609 117.419 50.7634 118.503C51.3189 119.031 51.979 119.435 52.7006 119.69C53.4222 119.945 54.1893 120.044 54.9518 119.982L67.0481 119.434C68.561 119.36 69.9905 118.717 71.0509 117.632C71.5919 117.083 72.0122 116.426 72.2846 115.704C72.557 114.983 72.6755 114.211 72.6325 113.441L72.2615 104.628C74.2629 104.079 76.2157 103.365 78.0998 102.493C79.9716 101.682 81.7969 100.766 83.5671 99.7514L90.7429 106.341C91.2902 106.884 91.9448 107.306 92.6646 107.579C93.3843 107.852 94.1531 107.971 94.9215 107.928C95.6848 107.899 96.4345 107.715 97.1256 107.389C97.8167 107.063 98.4351 106.6 98.9438 106.028L107.145 97.0879C107.667 96.5275 108.068 95.8653 108.323 95.1425C108.578 94.4197 108.682 93.652 108.629 92.8871C108.561 91.3331 107.912 89.8615 106.813 88.7646L100.174 82.7522C101.222 81.0056 102.118 79.1708 102.849 77.2686C103.62 75.3102 104.274 73.4791 104.85 71.4912L114.487 71.1289C116.014 71.0696 117.456 70.408 118.499 69.288C119.026 68.7314 119.431 68.0697 119.687 67.3459C119.942 66.6222 120.043 65.8526 119.983 65.0872L119.427 52.9547C119.358 51.4362 118.716 50.0007 117.63 48.9399C117.084 48.3986 116.431 47.9778 115.713 47.7046C114.995 47.4314 114.228 47.3119 113.461 47.3536L104.675 47.7257C104.068 45.7485 103.345 43.8095 102.507 41.919L101.238 39.4122L99.061 42.2617C97.0498 44.9252 95.1558 47.5397 93.3301 50.0954C93.6955 51.383 93.9856 52.6908 94.199 54.0123C95.0018 58.6457 94.899 63.3915 93.8964 67.9857C92.871 72.3676 91.058 76.5253 88.5462 80.2552C85.8939 83.9434 82.5838 87.1074 78.7832 89.5871C74.887 92.1195 70.4967 93.7887 65.9058 94.4832C61.2862 95.2884 56.5545 95.1853 51.974 94.1796C47.5929 93.1617 43.434 91.3498 39.702 88.8331C36.0247 86.1729 32.8702 82.8529 30.3978 79.041C27.8542 75.138 26.173 70.734 25.4675 66.1252C24.6647 61.4917 24.7675 56.7459 25.7702 52.1518C26.7956 47.7527 28.6191 43.5804 31.1496 39.843C33.8019 36.1548 37.112 32.9909 40.9126 30.5111C44.8149 27.9885 49.1963 26.3047 53.7802 25.5661C58.4032 24.7611 63.138 24.8642 67.7218 25.8696C69.2222 26.2248 70.6992 26.6728 72.1444 27.2112C74.5656 24.5575 77.475 21.4436 80.2965 18.5745V18.6235Z" fill="#003E53"/>
<path d="M37.2156 49.8789L49.2156 49.7189L50.1156 49.9589C54.3365 52.3641 58.1503 55.4219 61.4156 59.0189C65.5678 52.3231 70.1719 45.9182 75.1956 39.8489C78.5456 35.8489 94.2756 18.6089 98.1256 17.1189L107.646 19.3189L104.996 22.2589C96.8556 31.3089 88.2456 43.1389 81.5756 52.7789C74.9455 62.3385 68.9332 72.3122 63.5756 82.6389L61.9956 85.8289L60.4756 82.5789C57.7771 76.697 54.3612 71.1717 50.3056 66.1289C46.2664 61.1368 41.5235 56.7577 36.2256 53.1289L37.2256 49.9089L37.2156 49.8789Z" fill="#4CA585"/>
</svg>
