<svg width="120" height="120" viewBox="0 0 120 120" fill="none" xmlns="http://www.w3.org/2000/svg">
<path d="M64.854 102.881H86.2528C87.9717 101.142 89.8567 99.3329 91.771 97.4944C95.7851 93.6286 99.975 89.5938 104.282 84.5453C109.204 78.7714 109.732 76.7739 111.226 71.1193C111.509 70.0559 111.822 68.8634 112.232 67.3826L114.791 58.2298L114.82 58.1304C116.188 54.0559 116.295 51.3627 115.729 49.8124C115.553 49.3354 115.328 49.0174 115.064 48.8484C114.859 48.7093 114.586 48.6596 114.303 48.6894C113.639 48.759 112.887 49.1863 112.203 49.9516L104.604 68.3665C104.536 68.5354 104.438 68.6944 104.331 68.8335C103.882 69.6584 103.276 70.4634 102.495 71.2286L89.0168 86.523C88.2843 87.3578 87.0244 87.4273 86.2137 86.682C85.3933 85.9366 85.325 84.6547 86.0575 83.8298L99.5452 68.5354C99.6038 68.4658 99.6624 68.3963 99.7308 68.3366C101.127 66.9851 101.567 65.5242 101.323 64.4609C101.245 64.1329 101.108 63.8547 100.913 63.6658C100.727 63.4969 100.483 63.3776 100.18 63.3478C98.9788 63.2186 97.2012 64.123 95.0526 66.7168C94.994 66.7863 94.9256 66.8559 94.8572 66.9255L89.6321 71.6161L89.6028 71.646C83.9479 77.0919 81.516 78.3838 77.0819 80.7391C76.1541 81.236 75.1383 81.7727 73.8784 82.4683C73.3803 82.7466 72.892 83.0845 72.4134 83.4522C71.9056 83.8497 71.4172 84.2571 70.9582 84.6547C68.6142 86.6621 67.3836 88.2919 66.6804 90.0907C65.9479 91.959 65.6842 94.2348 65.3228 97.3553C65.1763 98.6174 65.0689 99.8596 64.981 101.102C64.9126 101.708 64.8833 102.304 64.854 102.881ZM87.7569 37.4795C87.7178 38.046 87.6983 38.523 87.6983 38.7416C87.6983 39.2683 87.3369 39.7056 86.8583 39.8248L85.4422 40.2621C85.3347 40.3019 85.2273 40.3217 85.1199 40.3217H84.8855C84.3874 40.3217 83.9479 39.9739 83.8404 39.4969L82.6001 35.641V35.6211L82.3657 34.8857L80.2658 38.7416C80.1779 38.9106 80.051 39.0298 79.9045 39.1391L78.8106 39.8547C78.3027 40.1826 77.6386 40.0236 77.3163 39.5068C77.2479 39.3776 77.1893 39.2286 77.1503 39.0894L76.0759 32.9876L74.4644 31.8149L70.675 31.1193C70.8019 31.318 70.9484 31.5366 71.0656 31.7354C71.7493 32.7988 72.3744 33.7826 72.5892 34.8062C72.9311 36.446 72.3158 37.8174 69.6397 38.8112C69.7081 38.8609 69.8057 38.9006 69.8741 38.9702C70.9191 39.795 71.1633 40.9776 68.8877 44.0286C68.3114 44.7938 67.8133 45.4696 67.3934 46.0559C67.0711 46.513 66.7683 46.9702 66.4753 47.3876L66.9929 51.1839C67.0613 51.6907 66.9343 52.1876 66.612 52.6845C66.3776 53.0522 66.0163 53.3801 65.5377 53.6882C65.2154 53.887 64.9419 54.1056 64.7271 54.3242C64.6392 54.4137 64.5708 54.4932 64.4927 54.5826L64.7271 55.6559C64.8345 56.1826 64.5708 56.6994 64.102 56.8981L63.7113 57.077C63.643 57.3851 63.516 57.7031 63.3695 57.9913C63.1351 58.4683 62.8128 58.9453 62.4026 59.4025C61.9533 59.8994 61.465 60.2571 60.9474 60.5155C60.3907 60.7739 59.8144 60.913 59.2089 60.913H57.3044C56.7086 60.913 56.2301 60.4162 56.2301 59.8199C56.2301 59.323 56.1812 58.7963 56.0543 58.2298C55.9273 57.6435 55.7515 57.0273 55.4976 56.3615C55.2143 55.6161 54.9897 54.9404 54.853 54.3342C54.6869 53.6981 54.6186 53.1317 54.6186 52.6547C54.6186 52.2373 54.6576 51.8497 54.726 51.5217C54.8139 51.1242 54.9409 50.7863 55.1362 50.4981C55.1557 50.4584 55.1753 50.3888 55.2046 50.2398C55.2436 50.0211 55.2534 49.7329 55.2534 49.3652C55.2534 49.077 55.2046 48.7789 55.1069 48.4708C54.9995 48.123 54.8334 47.7553 54.6186 47.3578C54.3451 46.8609 54.1302 46.4832 54.0033 46.1652C53.8079 45.7478 53.7005 45.4 53.7005 45.1416C53.7005 43.3528 53.0852 42.9453 52.2453 42.9453C51.7374 42.9453 51.1709 43.0149 50.5752 43.1143C49.8427 43.2236 49.0711 43.313 48.3093 43.313C47.7331 43.313 47.1764 43.0547 46.6392 42.528C46.2485 42.1404 45.809 41.5739 45.3793 40.8484C44.9886 40.1925 44.6956 39.6559 44.4808 39.2584C44.2073 38.7118 44.0706 38.2944 44.0706 37.9963V37.1516C44.0315 34.1006 44.012 31.2087 46.9127 29.072C48.114 27.3329 49.1981 26.2 50.4873 25.4944C51.8351 24.7491 53.3391 24.4907 55.3901 24.4907C55.9859 24.4907 56.4645 24.9876 56.4645 25.5839V27.1342L57.7537 27.7205L57.7732 27.6311C57.9002 27.0447 58.4764 26.6671 59.0526 26.7863C59.4433 26.8758 59.8242 26.9851 60.1465 27.0944C60.5079 27.2236 60.8106 27.3727 61.0646 27.5516C61.2111 27.641 61.4455 27.7205 61.7482 27.7702C62.0705 27.8298 62.4319 27.8398 62.7347 27.7901C62.9007 27.7503 63.0081 27.7205 63.0374 27.6807V27.641C63.0765 27.4721 63.0863 27.313 63.1058 27.1441L61.8166 27.2534C61.3478 27.2932 60.9376 27.0348 60.7618 26.6273C60.3321 25.713 59.4531 25.2559 58.3201 24.6696C57.1188 24.0435 55.7027 23.2981 54.1498 21.8174C48.9734 23.6857 47.3229 23.9342 46.9127 22.7714C46.6587 22.0758 47.0201 21.5292 47.4889 20.7938C47.9186 20.118 48.5144 19.164 48.5144 18.2696C48.5144 17.7925 48.8172 17.395 49.2371 17.2261L53.5833 15.1988C53.1145 15.1093 52.5383 15.0199 52.0597 12.6248C51.9718 12.128 52.2062 11.6609 52.6164 11.4323C52.9582 11.2534 53.3489 10.995 53.8177 10.687C54.2865 10.3789 54.8432 9.95155 55.4878 9.4646L55.5269 9.42484C53.3196 9.77267 51.1807 10.3888 49.1492 11.2932C47.4401 12.0385 45.8579 12.923 44.3929 13.9068C42.9181 14.9106 41.5508 16.0435 40.3006 17.3255C39.0407 18.6075 37.9273 19.9888 36.9409 21.4894C35.9545 22.9901 35.095 24.6 34.3723 26.3292C34.3723 26.3491 34.3527 26.3689 34.3527 26.3888C33.6495 28.0882 33.1124 29.8373 32.751 31.6559C32.4092 33.5342 32.2236 35.4323 32.2236 37.3901C32.2236 39.3478 32.3994 41.246 32.7608 43.0745C32.7803 43.164 32.7998 43.2733 32.8194 43.3627L37.8297 45.7975C38.2106 45.9764 38.4254 46.3441 38.445 46.7516C38.5036 48.2124 38.1227 49.2957 37.7222 50.3888C37.439 51.2137 37.1265 52.0484 37.0972 53.0422C37.0972 53.1516 37.0776 53.241 37.0386 53.3304C38.0055 54.7913 39.0993 56.1429 40.3397 57.3851C41.5996 58.6671 42.9572 59.8 44.4319 60.8037C45.9067 61.8075 47.4889 62.682 49.1883 63.4174C49.2078 63.4174 49.2274 63.4373 49.2469 63.4373C50.917 64.1528 52.6457 64.6994 54.4232 65.0671C56.2203 65.4348 58.0857 65.6137 60.0098 65.6137C61.9338 65.6137 63.7992 65.4348 65.5963 65.0671C67.4129 64.6994 69.1514 64.1528 70.8215 63.4273C72.5306 62.682 74.1128 61.7975 75.5778 60.8137C77.0526 59.8099 78.4102 58.677 79.6701 57.395C80.93 56.113 82.0434 54.7317 83.0298 53.2311C84.0162 51.7304 84.8757 50.1205 85.5984 48.3913C85.5984 48.3714 85.618 48.3516 85.618 48.3416C86.3212 46.6422 86.8583 44.8832 87.2197 43.0745C87.5811 41.246 87.7569 39.3677 87.7569 37.4099V37.4795ZM48.3191 9.37516C51.962 7.78509 55.8589 7 59.9902 7C62.051 7 64.0532 7.19876 66.0065 7.60621C67.9305 7.99379 69.796 8.59006 71.6126 9.36522C71.6321 9.36522 71.6516 9.38509 71.6712 9.38509C73.4878 10.1702 75.1774 11.1242 76.7694 12.1975C78.3711 13.2708 79.8361 14.523 81.1839 15.8845C82.5317 17.2559 83.7525 18.7565 84.8073 20.3764C85.8817 22.0062 86.7997 23.7354 87.5713 25.564C88.3624 27.4323 88.9386 29.3503 89.3293 31.318C89.72 33.2957 89.9251 35.3429 89.9251 37.4398C89.9251 39.5366 89.7297 41.5739 89.3293 43.5615C88.9484 45.5193 88.3624 47.4174 87.6006 49.2658C87.6006 49.2857 87.5811 49.3056 87.5811 49.3255C86.8095 51.1739 85.8719 52.8932 84.8171 54.513C83.7623 56.1429 82.5317 57.6335 81.1937 59.005C79.8459 60.3764 78.3711 61.6186 76.7791 62.6919C75.1774 63.7851 73.478 64.7193 71.6809 65.5043C69.8448 66.3093 67.9598 66.8957 66.026 67.2932C64.0825 67.6907 62.0705 67.8994 60.0098 67.8994C57.949 67.8994 55.9468 67.7006 53.9935 67.2932C52.0695 66.9056 50.204 66.3093 48.3874 65.5342C48.3679 65.5342 48.3484 65.5143 48.3288 65.5143C46.5122 64.7292 44.8226 63.7752 43.2306 62.7019C41.6289 61.6286 40.1639 60.3764 38.8161 59.0149C37.4683 57.6435 36.2475 56.1429 35.1927 54.523C34.1183 52.8932 33.2003 51.164 32.4287 49.3354C31.6376 47.4671 31.0614 45.5491 30.6707 43.5814C30.28 41.6037 30.0749 39.5565 30.0749 37.4596C30.0749 35.3627 30.2703 33.3255 30.6707 31.3379C31.0516 29.3801 31.6376 27.482 32.3994 25.6335C32.3994 25.6137 32.4189 25.5938 32.4189 25.5739C33.1905 23.7255 34.1281 22.0062 35.1829 20.3863C36.2377 18.7565 37.4683 17.2658 38.8063 15.8944C40.1541 14.523 41.6289 13.2807 43.2209 12.2075C44.8226 11.1143 46.522 10.1801 48.3191 9.39503V9.37516ZM34.7629 48.4807C34.9973 49.0273 35.2513 49.5739 35.5345 50.1205C35.5931 49.9714 35.6224 49.8422 35.681 49.7031C35.9349 48.9876 36.1889 48.2919 36.2572 47.5267L33.9914 46.4335C34.216 47.1292 34.4699 47.805 34.7629 48.4807ZM72.306 12.3168C71.3 11.8 70.255 11.3528 69.1807 10.9652C65.1568 11.9193 64.0043 11.3528 62.7151 10.7068C62.0705 10.3988 61.3673 10.0509 59.8242 10.0509H58.9061C58.8182 10.0509 58.6229 10.1205 58.3104 10.2894C57.9197 10.5081 57.4118 10.836 56.8161 11.313C56.1715 11.8099 55.5952 12.2472 55.0581 12.6149C54.7553 12.8335 54.4623 13.0124 54.1986 13.1814C54.7162 13.3106 55.1167 13.6385 55.3804 16.0832C55.439 16.5404 55.185 16.9975 54.7553 17.1963L50.6631 19.0944C50.4677 20.2969 49.8231 21.3205 49.3348 22.0758C49.3153 22.0957 49.3153 22.1155 49.2957 22.1155C49.8134 21.8075 51.0537 20.7242 54.0326 19.6509C54.4232 19.472 54.9311 19.5615 55.2339 19.9093C56.6891 21.4596 58.1248 22.195 59.3066 22.8112C60.5665 23.4671 61.592 24.0037 62.344 25.1168L64.0825 24.9478C64.1508 24.928 64.2094 24.928 64.2778 24.928C64.8736 24.928 65.3521 25.4248 65.3521 26.0211C65.3521 26.3689 65.3326 26.7168 65.3033 27.0845C65.2642 27.4124 65.2349 27.7602 65.1763 28.1081V28.1478C65.1275 28.436 65.0103 28.7143 64.8736 28.9528C64.4927 29.559 63.8676 29.9068 63.1644 30.046C62.5882 30.1553 61.9631 30.1354 61.3869 30.046C60.8302 29.9565 60.293 29.7578 59.9121 29.4994C59.8437 29.4398 59.7461 29.3901 59.6386 29.3503L59.58 29.5888C59.5605 29.6584 59.541 29.7379 59.5117 29.8075C59.2773 30.354 58.6327 30.6124 58.0955 30.3739L55.0092 29.0025C54.5795 28.8534 54.2865 28.436 54.2865 27.959V26.8062C53.1536 26.8758 52.255 27.0944 51.4835 27.5217C50.4775 28.0683 49.5985 29.0224 48.573 30.5329C48.5046 30.6621 48.3972 30.7714 48.2702 30.8609C46.1509 32.3416 46.1899 34.7168 46.2095 37.2211C46.2095 37.7379 46.229 37.9366 46.229 38.0758C46.229 38.1354 46.2876 38.1155 46.4048 38.3342C46.5806 38.7019 46.8541 39.1789 47.2154 39.795C47.5377 40.3416 47.8405 40.7491 48.114 40.9975C48.2409 41.1267 48.3093 41.1764 48.3093 41.1764C48.9539 41.1764 49.6376 41.087 50.2822 40.9975C50.9658 40.9081 51.63 40.8186 52.2355 40.8186C54.3353 40.8186 55.8492 41.6037 55.8492 45.2012C55.8492 45.2708 55.8882 45.1615 55.9371 45.2907C56.064 45.5491 56.2398 45.8969 56.4742 46.3342C56.7575 46.8609 56.9919 47.3776 57.1579 47.8845C57.3239 48.4112 57.4118 48.928 57.4118 49.4149C57.4118 49.8919 57.3728 50.3292 57.3044 50.6969C57.236 51.154 57.0895 51.5019 56.8942 51.7901C56.8551 51.8298 56.8356 51.9193 56.8258 52.0286C56.7868 52.2075 56.7672 52.4261 56.7672 52.7044C56.7672 53.0124 56.8258 53.4 56.9333 53.8571C57.0602 54.354 57.236 54.9304 57.49 55.6261C57.7732 56.3714 57.9881 57.1068 58.1346 57.8224C58.2029 58.1503 58.2615 58.4584 58.3006 58.7565H59.1991C59.5019 58.7565 59.7949 58.7068 60.0391 58.5776C60.3125 58.4484 60.5762 58.2497 60.8302 57.9714C61.1036 57.6832 61.3185 57.3652 61.4552 57.0571C61.5822 56.7789 61.6701 56.5304 61.6896 56.2721C61.7092 55.8745 61.9631 55.5068 62.3342 55.3379L62.4417 55.2783L62.2952 54.5826C62.2463 54.3043 62.2756 54.0161 62.4417 53.7578C62.6565 53.4099 62.9495 53.0621 63.2718 52.754C63.5941 52.446 63.9555 52.1478 64.3657 51.8795C64.6001 51.7106 64.7564 51.5913 64.854 51.4621L64.2973 47.3478C64.2387 47.0696 64.2973 46.7814 64.4634 46.523C64.7661 46.0261 65.1861 45.4497 65.6451 44.764C66.1139 44.1081 66.612 43.4124 67.1687 42.677C68.37 41.087 68.5849 40.7193 68.5556 40.6994C68.4872 40.6497 68.3017 40.5702 68.1063 40.4807C67.3738 40.1727 66.5632 39.8447 66.1628 38.7217L66.1042 38.5528C65.9772 37.9665 66.3581 37.3801 66.9441 37.2509C69.8741 36.6248 70.6066 35.9689 70.4503 35.2236C70.3234 34.5975 69.8057 33.7826 69.2295 32.8981C68.6728 32.0236 68.077 31.0894 67.6864 30.0857C67.5985 29.887 67.5594 29.6484 67.5985 29.4298C67.7059 28.8236 68.2626 28.4261 68.8584 28.5354L75.0504 29.6683C75.1969 29.6882 75.3532 29.7578 75.4802 29.8472L77.58 31.3677C77.8535 31.5366 78.0488 31.805 78.0976 32.1329L78.8887 36.6447L81.6332 31.636C81.7601 31.3578 81.9945 31.1391 82.2973 31.0497C82.8735 30.8708 83.4791 31.1988 83.6646 31.7652L84.6511 34.9255L85.5984 37.8075C85.6375 37.2012 85.6863 36.4161 85.7938 35.6311C85.9012 34.8261 86.0477 34.0211 86.2235 33.4248C86.37 32.9677 86.5458 32.5801 86.7802 32.3118C86.6142 31.2683 86.3993 30.2248 86.1161 29.2211C85.7742 27.9988 85.3445 26.8062 84.8366 25.6534C84.319 24.4807 83.7428 23.3677 83.0786 22.3043C82.4145 21.2311 81.7113 20.2174 80.9397 19.2733C80.1486 18.3193 79.3087 17.4248 78.4102 16.5901C77.5116 15.7652 76.5447 15 75.5192 14.2646C74.4937 13.5491 73.4389 12.913 72.3255 12.3466L72.306 12.3168ZM64.8443 51.4919V51.4522C64.8443 51.4721 64.8638 51.5217 64.8638 51.5118L64.8443 51.4919ZM48.9832 22.1155C49.0223 22.2248 49.1102 22.2248 49.286 22.1155H48.9832ZM55.146 102.881H33.7374C32.0185 101.142 30.1335 99.3329 28.2193 97.4944C24.2052 93.6286 20.0153 89.5938 15.7082 84.5453C10.7858 78.7714 10.2583 76.7739 8.76405 71.1193C8.48082 70.0559 8.16828 68.8634 7.75808 67.3826L5.19922 58.2298L5.16992 58.1304C3.80258 54.0559 3.69515 51.3627 4.26162 49.8124C4.43742 49.3354 4.66205 49.0174 4.92575 48.8484C5.13085 48.7093 5.40432 48.6596 5.68755 48.6894C6.35168 48.759 7.10372 49.1863 7.78738 49.9516L15.3859 68.3665C15.4542 68.5354 15.5519 68.6944 15.6593 68.8335C16.1086 69.6584 16.7141 70.4634 17.4955 71.2286L30.9735 86.523C31.706 87.3578 32.9659 87.4273 33.7765 86.682C34.5969 85.9366 34.6653 84.6547 33.9328 83.8298L20.4645 68.5255C20.4059 68.4559 20.3473 68.3863 20.279 68.3267C18.8823 66.9752 18.4428 65.5143 18.687 64.4509C18.7651 64.123 18.9019 63.8447 19.0972 63.6559C19.2828 63.487 19.5269 63.3677 19.8297 63.3379C21.031 63.2087 22.8085 64.113 24.9572 66.7068C25.0158 66.7764 25.0842 66.846 25.1623 66.9155L30.3875 71.6062L30.4168 71.636C36.0717 77.082 38.5036 78.3739 42.9376 80.7292C43.8655 81.2261 44.8812 81.7627 46.1411 82.4584C46.6392 82.7366 47.1275 83.0745 47.6061 83.4422C48.114 83.8398 48.6023 84.2472 49.0613 84.6447C51.4053 86.6522 52.6359 88.282 53.3391 90.0807C54.0716 91.9491 54.3353 94.2248 54.6967 97.3453C54.8432 98.6075 54.9506 99.8497 55.0385 101.092C55.0874 101.708 55.1167 102.304 55.146 102.881ZM28.7564 103.576C28.4537 103.934 28.2681 104.401 28.2681 104.908V116.973C28.2681 118.096 29.1666 119 30.2605 119H57.197C58.3006 119 59.1894 118.086 59.1894 116.973V104.799C59.1894 103.507 59.1112 102.116 59.0233 100.824C58.9354 99.5019 58.8182 98.1901 58.6717 96.8882C58.2811 93.4795 57.9881 90.9851 57.0505 88.5901C56.0836 86.1354 54.5307 84.0186 51.6495 81.5441C51.1221 81.087 50.5849 80.6298 50.0185 80.2025C49.4227 79.7453 48.7781 79.3081 48.0554 78.9006C46.8834 78.2547 45.7895 77.6683 44.7933 77.1317C40.6913 74.9453 38.445 73.7528 33.1612 68.6646C33.1221 68.6248 33.0733 68.5851 33.0342 68.5553L27.936 63.9739C24.8205 60.2671 21.7733 59.0348 19.4293 59.2932H19.4195C18.2768 59.4124 17.3001 59.8696 16.5188 60.5652L11.3717 48.0832H11.362C11.2839 47.9043 11.1862 47.7354 11.0592 47.5764C9.63328 45.8373 7.82645 44.8236 6.09775 44.6447C4.91598 44.5255 3.77328 44.7839 2.77708 45.4398C1.82971 46.0658 1.04838 47.0398 0.560048 48.3814C-0.299419 50.7168 -0.279886 54.3441 1.39998 59.3627L3.93932 68.4559C4.31045 69.7677 4.63275 71.0298 4.93552 72.1429C6.59585 78.4534 7.18185 80.6894 12.7196 87.1689C17.1048 92.3068 21.3924 96.441 25.5139 100.396C26.5882 101.48 27.6626 102.513 28.7564 103.576ZM32.5654 106.945C32.8291 107.005 33.1026 107.005 33.3761 106.945H55.1948V114.955H32.2529V106.945H32.5654ZM91.2436 103.576C91.5463 103.934 91.7319 104.401 91.7319 104.908V116.973C91.7319 118.096 90.8334 119 89.7395 119H62.8128C61.7092 119 60.8204 118.086 60.8204 116.973V104.799C60.8204 104.729 60.8204 104.65 60.8302 104.58C60.8595 103.278 60.9083 102.016 60.9864 100.824C61.0743 99.5019 61.1915 98.1901 61.338 96.8882C61.7287 93.4795 62.0217 90.9851 62.9593 88.5901C63.9262 86.1354 65.4791 84.0186 68.3603 81.5441C68.8877 81.087 69.4248 80.6298 69.9913 80.2025C70.5871 79.7453 71.2317 79.3081 71.9544 78.9006C73.1264 78.2547 74.2203 77.6683 75.2165 77.1317C79.3185 74.9453 81.5648 73.7528 86.8486 68.6646C86.8876 68.6248 86.9365 68.5851 86.9755 68.5553L92.0737 63.9739C95.1893 60.2671 98.2365 59.0348 100.571 59.2932H100.581C101.723 59.4124 102.7 59.8696 103.481 60.5652L108.628 48.0832H108.638C108.716 47.9043 108.814 47.7354 108.941 47.5764C110.367 45.8373 112.174 44.8236 113.902 44.6447C115.084 44.5255 116.227 44.7839 117.223 45.4398C118.17 46.0658 118.952 47.0398 119.44 48.3814C120.299 50.7168 120.28 54.3441 118.6 59.3627L116.061 68.4559C115.69 69.7677 115.367 71.0298 115.064 72.1429C113.404 78.4534 112.818 80.6894 107.28 87.1689C102.895 92.3068 98.6076 96.441 94.4861 100.396C93.4118 101.48 92.3374 102.513 91.2436 103.576ZM87.4346 106.945C87.1709 107.005 86.8974 107.005 86.6239 106.945H64.8052V114.955H87.7471V106.945H87.4346Z" fill="#003E53"/>
</svg>
