<svg width="223" height="110" viewBox="0 0 223 110" fill="none" xmlns="http://www.w3.org/2000/svg">
<ellipse cx="151.5" cy="62" rx="47.5" ry="48" fill="white"/>
<path d="M2.24609 48.4531C2.24609 46.3047 2.64974 44.2995 3.45703 42.4375C4.26432 40.5625 5.44271 38.9349 6.99219 37.5547C8.54167 36.1745 10.4427 35.0872 12.6953 34.293C14.9609 33.4987 17.5521 33.1016 20.4688 33.1016C21.5234 33.1016 22.5781 33.1602 23.6328 33.2773C24.7005 33.3815 25.7487 33.5508 26.7773 33.7852C27.819 34.0195 28.8281 34.319 29.8047 34.6836C30.7943 35.0352 31.7318 35.4583 32.6172 35.9531L29.7656 40.6406C29.2318 40.3281 28.6263 40.0482 27.9492 39.8008C27.2721 39.5404 26.543 39.3255 25.7617 39.1562C24.9935 38.974 24.1927 38.8372 23.3594 38.7461C22.5391 38.6549 21.7122 38.6094 20.8789 38.6094C18.9518 38.6094 17.2331 38.8568 15.7227 39.3516C14.2122 39.8333 12.9362 40.5169 11.8945 41.4023C10.8529 42.2747 10.0586 43.3229 9.51172 44.5469C8.96484 45.7708 8.69141 47.112 8.69141 48.5703C8.69141 50.0807 8.97786 51.4674 9.55078 52.7305C10.1237 53.9935 10.9375 55.0807 11.9922 55.9922C13.0469 56.9036 14.3229 57.6198 15.8203 58.1406C17.3177 58.6484 18.9909 58.9023 20.8398 58.9023C22.3112 58.9023 23.6589 58.7396 24.8828 58.4141C26.1068 58.0755 27.1745 57.6003 28.0859 56.9883C28.9974 56.3763 29.7396 55.6406 30.3125 54.7812C30.8854 53.9089 31.263 52.9323 31.4453 51.8516H20.7812V46.7539H37.0117V46.7734L37.0312 46.7539C37.3568 48.3164 37.4544 49.8398 37.3242 51.3242C37.207 52.7956 36.8685 54.1888 36.3086 55.5039C35.7617 56.806 35.0065 58.0039 34.043 59.0977C33.0794 60.1914 31.9271 61.1354 30.5859 61.9297C29.2448 62.7109 27.7214 63.3229 26.0156 63.7656C24.3099 64.1953 22.4414 64.4102 20.4102 64.4102C17.5716 64.4102 15.026 63.9935 12.7734 63.1602C10.5339 62.3268 8.63281 61.1875 7.07031 59.7422C5.50781 58.2969 4.3099 56.6042 3.47656 54.6641C2.65625 52.724 2.24609 50.6536 2.24609 48.4531ZM43.6133 40.9531H49.3945V44.2734C50.6706 43.3229 52.0182 42.5026 53.4375 41.8125C54.8568 41.1224 56.2695 40.5951 57.6758 40.2305L59.375 45.5234C57.1484 45.7448 55.1888 46.2461 53.4961 47.0273C51.8164 47.7956 50.4492 48.8828 49.3945 50.2891V64H43.6133V40.9531ZM62.5977 52.3984C62.5977 50.8359 62.9167 49.3451 63.5547 47.9258C64.1927 46.4935 65.1107 45.2305 66.3086 44.1367C67.5065 43.043 68.9714 42.1706 70.7031 41.5195C72.4479 40.8685 74.4271 40.543 76.6406 40.543C78.8411 40.543 80.8203 40.875 82.5781 41.5391C84.349 42.1901 85.8464 43.0885 87.0703 44.2344C88.3073 45.3802 89.2513 46.7279 89.9023 48.2773C90.5664 49.8268 90.8984 51.487 90.8984 53.2578C90.8984 53.4792 90.8919 53.7201 90.8789 53.9805C90.8789 54.2279 90.8659 54.4557 90.8398 54.6641H69.043C69.2904 55.3542 69.6875 55.9857 70.2344 56.5586C70.7943 57.1315 71.4909 57.6263 72.3242 58.043C73.1576 58.4596 74.1211 58.7852 75.2148 59.0195C76.3086 59.2409 77.5195 59.3516 78.8477 59.3516C80.1758 59.3516 81.4974 59.2148 82.8125 58.9414C84.1276 58.6549 85.3841 58.2969 86.582 57.8672L88.5352 62.2812C87.7799 62.6328 87.0117 62.9453 86.2305 63.2188C85.4622 63.4792 84.6549 63.7005 83.8086 63.8828C82.9753 64.0521 82.0964 64.1823 81.1719 64.2734C80.2604 64.3646 79.2969 64.4102 78.2812 64.4102C75.6901 64.4102 73.418 64.0977 71.4648 63.4727C69.5117 62.8477 67.8776 61.9948 66.5625 60.9141C65.2474 59.8333 64.2578 58.5638 63.5938 57.1055C62.9297 55.6471 62.5977 54.0781 62.5977 52.3984ZM84.7656 50.1523C84.5573 49.5143 84.2318 48.9219 83.7891 48.375C83.3594 47.8151 82.819 47.3333 82.168 46.9297C81.5169 46.513 80.7617 46.1875 79.9023 45.9531C79.043 45.7188 78.099 45.6016 77.0703 45.6016C75.9766 45.6016 74.9805 45.7253 74.082 45.9727C73.1836 46.2201 72.3958 46.5521 71.7188 46.9688C71.0417 47.3854 70.4753 47.8672 70.0195 48.4141C69.5768 48.9609 69.2513 49.5404 69.043 50.1523H84.7656ZM96.0352 52.3984C96.0352 50.8359 96.3542 49.3451 96.9922 47.9258C97.6302 46.4935 98.5482 45.2305 99.7461 44.1367C100.944 43.043 102.409 42.1706 104.141 41.5195C105.885 40.8685 107.865 40.543 110.078 40.543C112.279 40.543 114.258 40.875 116.016 41.5391C117.786 42.1901 119.284 43.0885 120.508 44.2344C121.745 45.3802 122.689 46.7279 123.34 48.2773C124.004 49.8268 124.336 51.487 124.336 53.2578C124.336 53.4792 124.329 53.7201 124.316 53.9805C124.316 54.2279 124.303 54.4557 124.277 54.6641H102.48C102.728 55.3542 103.125 55.9857 103.672 56.5586C104.232 57.1315 104.928 57.6263 105.762 58.043C106.595 58.4596 107.559 58.7852 108.652 59.0195C109.746 59.2409 110.957 59.3516 112.285 59.3516C113.613 59.3516 114.935 59.2148 116.25 58.9414C117.565 58.6549 118.822 58.2969 120.02 57.8672L121.973 62.2812C121.217 62.6328 120.449 62.9453 119.668 63.2188C118.9 63.4792 118.092 63.7005 117.246 63.8828C116.413 64.0521 115.534 64.1823 114.609 64.2734C113.698 64.3646 112.734 64.4102 111.719 64.4102C109.128 64.4102 106.855 64.0977 104.902 63.4727C102.949 62.8477 101.315 61.9948 100 60.9141C98.6849 59.8333 97.6953 58.5638 97.0312 57.1055C96.3672 55.6471 96.0352 54.0781 96.0352 52.3984ZM118.203 50.1523C117.995 49.5143 117.669 48.9219 117.227 48.375C116.797 47.8151 116.257 47.3333 115.605 46.9297C114.954 46.513 114.199 46.1875 113.34 45.9531C112.48 45.7188 111.536 45.6016 110.508 45.6016C109.414 45.6016 108.418 45.7253 107.52 45.9727C106.621 46.2201 105.833 46.5521 105.156 46.9688C104.479 47.3854 103.913 47.8672 103.457 48.4141C103.014 48.9609 102.689 49.5404 102.48 50.1523H118.203ZM130.566 40.9531H136.348V42.9062C137.884 42.0339 139.349 41.4219 140.742 41.0703C142.148 40.7188 143.522 40.543 144.863 40.543C146.621 40.543 148.249 40.8034 149.746 41.3242C151.243 41.832 152.539 42.5938 153.633 43.6094C154.727 44.625 155.579 45.8945 156.191 47.418C156.816 48.9284 157.129 50.6797 157.129 52.6719V64H151.367V53.6094C151.367 52.3464 151.185 51.2201 150.82 50.2305C150.469 49.2279 149.954 48.388 149.277 47.7109C148.613 47.0208 147.799 46.5 146.836 46.1484C145.885 45.7839 144.818 45.6016 143.633 45.6016C143.008 45.6016 142.363 45.6667 141.699 45.7969C141.048 45.9271 140.404 46.1159 139.766 46.3633C139.141 46.5977 138.535 46.8971 137.949 47.2617C137.363 47.6133 136.829 48.0169 136.348 48.4727V64H130.566V40.9531Z" fill="#4CA585"/>
<path d="M7.33594 65.4727H23.4297C25.7734 65.4727 27.8047 65.7266 29.5234 66.2344C31.2422 66.7422 32.668 67.4779 33.8008 68.4414C34.9336 69.3919 35.7734 70.5573 36.3203 71.9375C36.8802 73.3177 37.1602 74.8737 37.1602 76.6055C37.1602 78.2331 36.8867 79.737 36.3398 81.1172C35.793 82.4974 34.9531 83.6953 33.8203 84.7109C32.7005 85.7135 31.2812 86.5013 29.5625 87.0742C27.8438 87.6341 25.8125 87.9141 23.4688 87.9141L13.5273 87.8945V96H7.33594V65.4727ZM23.5859 82.543C24.7578 82.543 25.7799 82.4062 26.6523 82.1328C27.5378 81.8464 28.2734 81.4492 28.8594 80.9414C29.4583 80.4206 29.901 79.7956 30.1875 79.0664C30.487 78.3242 30.6367 77.5039 30.6367 76.6055C30.6367 74.7956 30.0443 73.3893 28.8594 72.3867C27.6875 71.3711 25.9297 70.8633 23.5859 70.8633H13.5273V82.543H23.5859ZM43.3711 63.5977H49.1523V96H43.3711V63.5977ZM55.4805 88.7344C55.4805 87.6276 55.7214 86.6185 56.2031 85.707C56.6849 84.7956 57.4076 84.0143 58.3711 83.3633C59.3346 82.6992 60.5326 82.1914 61.9648 81.8398C63.4102 81.4753 65.0898 81.293 67.0039 81.293C68.4232 81.293 69.9141 81.3971 71.4766 81.6055C73.0521 81.8138 74.6732 82.1328 76.3398 82.5625C76.2747 81.8333 76.0534 81.1628 75.6758 80.5508C75.2982 79.9258 74.7708 79.3919 74.0938 78.9492C73.4297 78.4935 72.6224 78.1419 71.6719 77.8945C70.7344 77.6471 69.6667 77.5234 68.4688 77.5234C67.8177 77.5234 67.1016 77.5625 66.3203 77.6406C65.5391 77.7188 64.7318 77.8359 63.8984 77.9922C63.0651 78.1484 62.2383 78.3438 61.418 78.5781C60.6107 78.8125 59.8555 79.0924 59.1523 79.418L57.3945 74.6719C58.2669 74.3594 59.1979 74.0729 60.1875 73.8125C61.1901 73.5521 62.2122 73.3307 63.2539 73.1484C64.2956 72.9531 65.3372 72.8034 66.3789 72.6992C67.4206 72.5951 68.4297 72.543 69.4062 72.543C73.7161 72.543 76.9193 73.6432 79.0156 75.8438C81.112 78.0443 82.1602 81.4167 82.1602 85.9609V96H76.3789V93.832C75.7799 94.1836 75.1224 94.5156 74.4062 94.8281C73.7031 95.1406 72.9349 95.4141 72.1016 95.6484C71.2682 95.8828 70.3698 96.0651 69.4062 96.1953C68.4557 96.3385 67.4466 96.4102 66.3789 96.4102C64.582 96.4102 63 96.2148 61.6328 95.8242C60.2786 95.4336 59.1458 94.8932 58.2344 94.2031C57.3229 93.513 56.6328 92.7057 56.1641 91.7812C55.7083 90.8438 55.4805 89.8281 55.4805 88.7344ZM61.5742 88.5391C61.5742 88.9167 61.6719 89.2812 61.8672 89.6328C62.0625 89.9714 62.375 90.2773 62.8047 90.5508C63.2344 90.8112 63.7812 91.026 64.4453 91.1953C65.1224 91.3516 65.9362 91.4297 66.8867 91.4297C67.9023 91.4297 68.8854 91.3385 69.8359 91.1562C70.7865 90.974 71.6719 90.7331 72.4922 90.4336C73.3125 90.1341 74.0547 89.7891 74.7188 89.3984C75.3828 89.0078 75.9362 88.6042 76.3789 88.1875V87.1719C75.4935 86.9245 74.6146 86.7161 73.7422 86.5469C72.8828 86.3776 72.056 86.2474 71.2617 86.1562C70.4805 86.0521 69.7383 85.9805 69.0352 85.9414C68.3451 85.9023 67.7396 85.8828 67.2188 85.8828C66.138 85.8828 65.2396 85.9544 64.5234 86.0977C63.8073 86.2409 63.2279 86.4362 62.7852 86.6836C62.3424 86.918 62.0299 87.1979 61.8477 87.5234C61.6654 87.849 61.5742 88.1875 61.5742 88.5391ZM89.8164 72.9531H95.5977V74.9062C97.1341 74.0339 98.599 73.4219 99.9922 73.0703C101.398 72.7188 102.772 72.543 104.113 72.543C105.871 72.543 107.499 72.8034 108.996 73.3242C110.493 73.832 111.789 74.5938 112.883 75.6094C113.977 76.625 114.829 77.8945 115.441 79.418C116.066 80.9284 116.379 82.6797 116.379 84.6719V96H110.617V85.6094C110.617 84.3464 110.435 83.2201 110.07 82.2305C109.719 81.2279 109.204 80.388 108.527 79.7109C107.863 79.0208 107.049 78.5 106.086 78.1484C105.135 77.7839 104.068 77.6016 102.883 77.6016C102.258 77.6016 101.613 77.6667 100.949 77.7969C100.298 77.9271 99.6536 78.1159 99.0156 78.3633C98.3906 78.5977 97.7852 78.8971 97.1992 79.2617C96.6133 79.6133 96.0794 80.0169 95.5977 80.4727V96H89.8164V72.9531ZM122.395 84.3984C122.395 82.8359 122.714 81.3451 123.352 79.9258C123.99 78.4935 124.908 77.2305 126.105 76.1367C127.303 75.043 128.768 74.1706 130.5 73.5195C132.245 72.8685 134.224 72.543 136.438 72.543C138.638 72.543 140.617 72.875 142.375 73.5391C144.146 74.1901 145.643 75.0885 146.867 76.2344C148.104 77.3802 149.048 78.7279 149.699 80.2773C150.363 81.8268 150.695 83.487 150.695 85.2578C150.695 85.4792 150.689 85.7201 150.676 85.9805C150.676 86.2279 150.663 86.4557 150.637 86.6641H128.84C129.087 87.3542 129.484 87.9857 130.031 88.5586C130.591 89.1315 131.288 89.6263 132.121 90.043C132.954 90.4596 133.918 90.7852 135.012 91.0195C136.105 91.2409 137.316 91.3516 138.645 91.3516C139.973 91.3516 141.294 91.2148 142.609 90.9414C143.924 90.6549 145.181 90.2969 146.379 89.8672L148.332 94.2812C147.577 94.6328 146.809 94.9453 146.027 95.2188C145.259 95.4792 144.452 95.7005 143.605 95.8828C142.772 96.0521 141.893 96.1823 140.969 96.2734C140.057 96.3646 139.094 96.4102 138.078 96.4102C135.487 96.4102 133.215 96.0977 131.262 95.4727C129.309 94.8477 127.674 93.9948 126.359 92.9141C125.044 91.8333 124.055 90.5638 123.391 89.1055C122.727 87.6471 122.395 86.0781 122.395 84.3984ZM144.562 82.1523C144.354 81.5143 144.029 80.9219 143.586 80.375C143.156 79.8151 142.616 79.3333 141.965 78.9297C141.314 78.513 140.559 78.1875 139.699 77.9531C138.84 77.7188 137.896 77.6016 136.867 77.6016C135.773 77.6016 134.777 77.7253 133.879 77.9727C132.98 78.2201 132.193 78.5521 131.516 78.9688C130.839 79.3854 130.272 79.8672 129.816 80.4141C129.374 80.9609 129.048 81.5404 128.84 82.1523H144.562ZM160.402 77.2891H154.836V72.9531H160.402V65.7852H166.184V72.9531H171.75V77.2891H166.184V96H160.402V77.2891Z" fill="#003E53"/>
<path d="M43.5 58.5V63.5L43 96H43.5H49L49.5 58.5H43.5Z" fill="url(#paint0_linear_300_31)"/>
<path d="M169.5 47.4999C166.667 32.6666 166 2.59992 186 0.999924C206 -0.600076 177.833 38.6666 169.5 47.4999Z" fill="#B6DBD3"/>
<path d="M191.34 52.603C191.738 44.755 197.18 30.9154 215.769 38.3405C234.357 45.7656 200.729 52.0114 191.34 52.603Z" fill="#4CA585"/>
<defs>
<linearGradient id="paint0_linear_300_31" x1="46.25" y1="58.5" x2="46.25" y2="96" gradientUnits="userSpaceOnUse">
<stop stop-color="#4CA585"/>
<stop offset="1" stop-color="#003E53"/>
</linearGradient>
</defs>
</svg>
