<svg width="120" height="120" viewBox="0 0 120 120" fill="none" xmlns="http://www.w3.org/2000/svg">
<path d="M64.8495 103.417H86.2501C87.9691 101.736 89.8543 99.9875 91.7687 98.2102C95.7831 94.473 99.9733 90.5725 104.281 85.6921C109.204 80.1103 109.731 78.1793 111.225 72.7128C111.509 71.6849 111.821 70.532 112.232 69.1005L114.791 60.2524L114.82 60.1563C116.187 56.2174 116.295 53.6138 115.728 52.1151C115.552 51.654 115.328 51.3465 115.064 51.1832C114.859 51.0487 114.585 51.0007 114.302 51.0295C113.638 51.0968 112.886 51.5099 112.202 52.2496L104.603 70.0516C104.535 70.215 104.437 70.3687 104.33 70.5032C103.88 71.3006 103.275 72.0787 102.493 72.8185L89.0143 87.6039C88.2817 88.4109 87.0217 88.4781 86.211 87.7576C85.3905 87.0371 85.3222 85.7977 86.0547 85.0003L99.5436 70.215C99.6022 70.1477 99.6608 70.0805 99.7292 70.0228C101.126 68.7162 101.565 67.304 101.321 66.276C101.243 65.959 101.106 65.69 100.911 65.5075C100.725 65.3441 100.481 65.2289 100.178 65.2C98.9771 65.0751 97.2092 65.9494 95.0505 68.4569C94.9919 68.5241 94.9236 68.5914 94.8552 68.6586L89.6296 73.1932L89.6003 73.222C83.9449 78.4867 81.5128 79.7356 77.0784 82.0125C76.1505 82.4929 75.1347 83.0117 73.8747 83.6842C73.3765 83.9532 72.8882 84.2798 72.4096 84.6353C71.9017 85.0196 71.4133 85.4134 70.9542 85.7977C68.61 87.7384 67.3793 89.3139 66.6761 91.0528C65.9435 92.859 65.6798 95.059 65.3184 98.0757C65.1719 99.2958 65.0644 100.497 64.9765 101.698C64.9082 102.284 64.8789 102.85 64.8495 103.417ZM60.0049 7C65.3379 7 69.6454 11.2464 69.6454 16.4822C69.6454 21.7277 65.3282 25.9645 60.0049 25.9645C54.6816 25.9645 50.3644 21.7181 50.3644 16.4822C50.3644 11.2464 54.6816 7 60.0049 7ZM49.7881 50.0496L57.436 57.6776L51.8002 63.221L56.3225 67.794L57.856 69.3407C60.4933 72.7705 56.5277 76.8439 53.1091 74.0098L43.0681 63.9415C41.5541 61.8856 41.0951 59.6183 42.6579 57.0436L49.7881 50.0304V50.0496ZM70.2119 50.0496L62.564 57.6776L68.1998 63.221L63.6774 67.794L62.144 69.3407C59.5067 72.7705 63.4723 76.8439 66.8909 74.0098L76.9221 63.9319C78.4361 61.876 78.8952 59.6087 77.3324 57.034L70.2021 50.0208V50.0496H70.2119ZM82.9194 47.5421C81.3468 48.6662 79.3542 48.1378 78.0063 46.7639L70.3096 38.8381V46.053H49.6611V38.8573L41.9937 46.7735C40.6653 48.1378 38.6532 48.6662 37.0806 47.5517C35.5081 46.4277 34.9025 44.0451 36.2895 42.7193L46.389 33.0738C48.03 31.5078 51.1946 27.7898 53.3337 27.7898H66.8519C68.8444 27.7898 71.931 31.479 73.611 33.0738L83.7105 42.7193C85.0975 44.0355 84.4724 46.4181 82.9194 47.5421ZM55.1407 103.417H33.7304C32.0113 101.736 30.1262 99.9875 28.2118 98.2102C24.1974 94.473 20.0071 90.5725 15.6997 85.6921C10.7769 80.1103 10.2494 78.1793 8.755 72.7128C8.47174 71.6849 8.15918 70.532 7.74895 69.1005L5.18987 60.2524L5.16057 60.1563C3.79312 56.2174 3.68568 53.6138 4.25219 52.1151C4.42801 51.654 4.65266 51.3465 4.91638 51.1832C5.1215 51.0487 5.39499 51.0007 5.67824 51.0295C6.34243 51.0968 7.09453 51.5099 7.77825 52.2496L15.3773 70.0516C15.4457 70.215 15.5434 70.3687 15.6508 70.5032C16.1001 71.3006 16.7057 72.0787 17.4871 72.8185L30.9662 87.6039C31.6988 88.4109 32.9588 88.4781 33.7695 87.7576C34.5899 87.0371 34.6583 85.7977 33.9258 85.0003L20.4564 70.2054C20.3978 70.1381 20.3392 70.0708 20.2708 70.0132C18.8741 68.7066 18.4346 67.2944 18.6787 66.2664C18.7569 65.9494 18.8936 65.6804 19.089 65.4979C19.2746 65.3345 19.5187 65.2192 19.8215 65.1904C21.0229 65.0655 22.8006 65.9398 24.9495 68.4472C25.0081 68.5145 25.0764 68.5817 25.1448 68.649L30.3704 73.1836L30.3997 73.2124C36.0551 78.4771 38.4872 79.726 42.9216 82.0029C43.8495 82.4833 44.8653 83.0021 46.1253 83.6746C46.6235 83.9436 47.1118 84.2702 47.5904 84.6257C48.0983 85.01 48.5867 85.4038 49.0458 85.7881C51.39 87.7288 52.6207 89.3043 53.3239 91.0432C54.0565 92.8494 54.3202 95.0494 54.6816 98.066C54.8281 99.2862 54.9356 100.487 55.0235 101.688C55.0821 102.284 55.1114 102.85 55.1407 103.417ZM28.749 104.09C28.4462 104.436 28.2606 104.887 28.2606 105.377V117.04C28.2606 118.126 29.1592 119 30.2532 119H57.1919C58.2956 119 59.1844 118.126 59.1844 117.04V105.262C59.1844 104.013 59.1063 102.668 59.0184 101.419C58.9305 100.141 58.8133 98.8731 58.6667 97.6145C58.276 94.3193 57.983 91.9079 57.0453 89.5926C56.0784 87.2196 54.5253 85.1733 51.6439 82.7811C51.1165 82.3392 50.5793 81.8972 50.0128 81.4841C49.417 81.0422 48.7723 80.6195 48.0495 80.2256C46.8774 79.6011 45.7835 79.0343 44.7872 78.5155C40.6848 76.402 38.4383 75.2491 33.1541 70.3302C33.1151 70.2918 33.0662 70.2534 33.0271 70.2246L27.9285 65.7957C24.8127 62.2122 21.7653 61.0209 19.4308 61.2707H19.4211C18.2783 61.386 17.3015 61.8279 16.5201 62.5004L11.3727 50.4339H11.3629C11.2848 50.2609 11.1871 50.0976 11.0601 49.9439C9.63407 48.2627 7.82709 47.2827 6.09825 47.1098C4.91638 46.9945 3.77359 47.2443 2.77731 47.8784C1.82986 48.4836 1.04847 49.4251 0.560093 50.7221C-0.299443 52.9798 -0.279908 56.4864 1.4001 61.338L3.93964 70.1285C4.3108 71.3966 4.63313 72.6167 4.93592 73.6927C6.59639 79.7933 7.18243 81.9549 12.7206 88.2187C17.1062 93.1856 21.3941 97.1822 25.516 101.015C26.5806 102.063 27.655 103.062 28.749 104.09ZM32.5583 107.347C32.822 107.404 33.0955 107.404 33.369 107.347H55.1895V115.09H32.2457V107.347H32.5583ZM91.2412 104.09C91.544 104.436 91.7296 104.887 91.7296 105.377V117.04C91.7296 118.126 90.8408 119 89.737 119H62.8081C61.7044 119 60.8156 118.126 60.8156 117.04V105.262C60.8156 105.195 60.8156 105.118 60.8254 105.05C60.8547 103.792 60.9035 102.572 60.9816 101.419C61.0695 100.141 61.1867 98.8731 61.3333 97.6145C61.724 94.3193 62.017 91.9079 62.9547 89.5926C63.9216 87.2196 65.4747 85.1733 68.3561 82.7811C68.8835 82.3392 69.4207 81.8972 69.9872 81.4841C70.583 81.0422 71.2277 80.6195 71.9505 80.2256C73.1226 79.6011 74.2165 79.0343 75.2128 78.5155C79.3152 76.402 81.5617 75.2491 86.8459 70.3302C86.8849 70.2918 86.9338 70.2534 86.9728 70.2246L92.0715 65.7957C95.1873 62.2122 98.2347 61.0209 100.569 61.2707H100.579C101.722 61.386 102.698 61.8279 103.48 62.5004L108.627 50.4339H108.637C108.715 50.2609 108.813 50.0976 108.94 49.9439C110.366 48.2627 112.173 47.2827 113.902 47.1098C115.084 46.9945 116.226 47.2443 117.223 47.8784C118.17 48.4836 118.952 49.4251 119.44 50.7221C120.299 52.9798 120.28 56.4864 118.6 61.338L116.06 70.1285C115.689 71.3966 115.367 72.6167 115.064 73.6927C113.404 79.7933 112.818 81.9549 107.279 88.2187C102.894 93.1856 98.6059 97.1822 94.484 101.015C93.4096 102.063 92.3352 103.062 91.2412 104.09ZM87.4319 107.347C87.1682 107.404 86.8947 107.404 86.6212 107.347H64.8007V115.09H87.7445V107.347H87.4319Z" fill="#003E53"/>
</svg>
