<svg width="120" height="120" viewBox="0 0 120 120" fill="none" xmlns="http://www.w3.org/2000/svg">
<path d="M9.57814 54.3792C9.03333 53.8567 8.17374 53.8751 7.6592 54.4284L2.37456 60.0349C1.87212 60.5697 1.87818 61.4057 2.37456 61.9344L7.6592 67.5716C8.1798 68.1249 9.03333 68.1433 9.57814 67.6208C10.1229 67.0982 10.1411 66.2315 9.62656 65.6782L5.23178 60.9939L9.62656 56.3218C10.1411 55.7747 10.1229 54.9018 9.57814 54.3792Z" fill="#4CA585" stroke="#4CA585" stroke-width="2"/>
<path d="M110.422 67.6208C110.967 68.1433 111.826 68.1249 112.341 67.5716L117.625 61.9651C118.128 61.4303 118.122 60.5943 117.625 60.0656L112.341 54.4284C111.82 53.8751 110.967 53.8567 110.422 54.3792C109.877 54.9018 109.859 55.7685 110.373 56.3218L114.768 61.0061L110.373 65.6782C109.859 66.2253 109.877 67.0982 110.422 67.6208Z" fill="#4CA585" stroke="#4CA585" stroke-width="2"/>
<path d="M74.6956 58.905L66.9137 51.5323L65.2748 61.4876C65.2422 61.6805 65.188 61.8841 65.0903 62.0555C65.0034 62.227 64.8624 62.3985 64.6995 62.5271C64.3522 62.8164 63.9073 62.945 63.484 62.9235C63.0607 62.8914 62.6482 62.6985 62.3443 62.3449L50.4381 48.4461L37.3379 59.5587V65.7633H82.6404V51.3394L75.3794 58.8514C75.3034 58.9693 75.1623 59.0443 75.0212 59.0443C74.8801 59.0336 74.7716 58.9907 74.6956 58.905ZM74.9778 54.5757L82.6404 46.2814V30.4537H82.6512H37.3379V55.0686C41.1149 51.693 45.6517 47.9853 49.5047 44.7919C49.852 44.5025 50.2753 44.3739 50.6769 44.3954C51.1001 44.4168 51.5126 44.599 51.8165 44.9205L51.8273 44.9419C51.849 44.9633 51.8599 44.974 51.8816 45.0062L62.518 57.4262L64.1026 47.846C64.1894 47.4066 64.4391 47.0422 64.7755 46.7958C65.112 46.56 65.5461 46.4314 66.002 46.5064L66.0454 46.5172C66.2082 46.5493 66.3601 46.6029 66.5012 46.6672C66.6532 46.7422 66.7943 46.8386 66.9245 46.9565L74.9778 54.5757ZM66.9788 33.5078C67.63 33.5078 68.2812 33.6471 68.8673 33.8828C69.4751 34.1293 70.0178 34.4937 70.4736 34.9437C70.9294 35.3938 71.2985 35.9296 71.5589 36.5297C71.7977 37.1084 71.928 37.7407 71.928 38.3943C71.928 39.048 71.7869 39.6803 71.5589 40.2482C71.3093 40.8483 70.9403 41.3841 70.4845 41.8342C70.0286 42.2843 69.4859 42.6486 68.8781 42.8951C68.2921 43.1416 67.6626 43.2702 67.0005 43.2702C66.3493 43.2702 65.6981 43.1309 65.112 42.8951C64.5042 42.6486 63.9724 42.2843 63.5057 41.8342C63.0498 41.3841 62.6808 40.8483 62.4203 40.2482C62.1815 39.6696 62.0513 39.048 62.0513 38.3943C62.0513 37.7514 62.1924 37.1084 62.4203 36.5297C62.67 35.9296 63.039 35.3938 63.4948 34.9437C63.9507 34.4937 64.4933 34.1293 65.1011 33.8828C65.6764 33.6364 66.3059 33.5078 66.9788 33.5078ZM68.4657 36.9262C68.2703 36.7333 68.0424 36.5833 67.7819 36.4654C67.5432 36.369 67.261 36.3154 66.9788 36.3154C66.6966 36.3154 66.4253 36.369 66.1756 36.4654C65.9151 36.5726 65.6872 36.7333 65.4919 36.9155C65.2965 37.1084 65.1445 37.3334 65.036 37.5906C64.9383 37.8371 64.8841 38.105 64.8841 38.3836C64.8841 38.6515 64.9383 38.9301 65.036 39.1766C65.1445 39.4338 65.3073 39.6588 65.4919 39.8517C65.6872 40.0446 65.9151 40.1946 66.1756 40.3125C66.4144 40.409 66.6966 40.4625 66.9788 40.4625C67.261 40.4625 67.5323 40.409 67.7819 40.3125C68.0424 40.2054 68.2703 40.0446 68.4657 39.8624C68.6611 39.6696 68.813 39.4445 68.9216 39.1873C69.0192 38.9409 69.0735 38.673 69.0735 38.3943C69.0735 38.1157 69.0192 37.8478 68.9216 37.6013C68.813 37.3442 68.6502 37.1191 68.4657 36.9262ZM36.5456 98.7261C35.037 98.7261 33.8214 97.5152 33.8214 96.0364C33.8214 94.5468 35.037 93.3466 36.5456 93.3466H82.6729C84.1815 93.3466 85.3971 94.5576 85.3971 96.0364C85.3971 97.5259 84.1815 98.7261 82.6729 98.7261H36.5456ZM37.0557 85.781C35.5471 85.781 34.3315 84.5701 34.3315 83.0913C34.3315 81.6018 35.5471 80.4015 37.0557 80.4015H60.89C62.3986 80.4015 63.6142 81.6125 63.6142 83.0913C63.6142 84.5808 62.3986 85.781 60.89 85.781H37.0557ZM37.7395 26.2958H82.2605C83.5195 26.2958 84.67 26.8102 85.4948 27.6246L85.5057 27.6353C86.3414 28.4605 86.8515 29.5857 86.8515 30.8287V65.3668C86.8515 66.6099 86.3305 67.7458 85.5057 68.5602L85.4948 68.5709C84.6591 69.3961 83.5195 69.8997 82.2605 69.8997H37.7395C36.4805 69.8997 35.33 69.3854 34.5052 68.5709L34.4943 68.5602C33.6586 67.7351 33.1485 66.6099 33.1485 65.3668V30.8395C33.1485 29.5964 33.6695 28.4605 34.4943 27.6461L34.5052 27.6353C35.33 26.8102 36.4805 26.2958 37.7395 26.2958ZM20.7864 9H99.2136C100.527 9 101.721 9.53581 102.589 10.3931L102.6 10.4038C103.468 11.2611 104 12.4399 104 13.7365V108.274C104 109.571 103.457 110.75 102.589 111.607L102.578 111.618C101.71 112.475 100.516 113 99.2028 113H20.7864C19.484 113 18.2792 112.464 17.411 111.607L17.4001 111.596C16.5318 110.739 16 109.56 16 108.263V13.7365C16 12.4399 16.5427 11.2611 17.411 10.4038L17.4218 10.3931C18.2792 9.52509 19.4731 9 20.7864 9ZM99.1376 13.7901H20.8515V108.199H99.1593V13.7901H99.1376Z" fill="#003E53" stroke="#003E53" stroke-width="3"/>
</svg>
